<svg width="43" height="43" viewBox="0 0 43 43" fill="none" xmlns="http://www.w3.org/2000/svg">
<path d="M19.1119 12.4991C20.3223 8.43186 24.7017 7.82856 26.74 8.0353C28.6372 8.13431 32.8011 9.43502 34.28 13.8455C34.6226 15.3379 35.2402 19.0424 34.969 21.9216C34.9419 22.3114 35.7094 25.3997 37.9502 25.2615C38.1985 25.2787 41.8206 24.6337 42.0816 21.5957C42.0864 21.3628 42.0868 21.129 42.0826 20.8943C42.1017 21.1412 42.1005 21.3748 42.0816 21.5957C41.7896 35.4118 25.4773 46.0581 13 40.5992C13.9083 37.6415 16.5354 34.8271 18.2275 33.3252C19.027 32.6158 20.5956 32.4323 21.6169 32.1168C23.4454 31.552 23.9228 29.4958 23.8091 27.1193C24.098 26.0429 23.4919 26.1183 23.1526 26.2905C21.3154 27.0442 19.6212 27.0213 19.3547 27.0028C18.6225 27.2653 18.4888 26.6196 18.5069 26.3598L18.5947 25.0931C18.5381 25.0394 18.422 24.9591 18.2802 24.8693C17.7984 24.5635 17.908 24.2933 18.3207 23.8991C18.2486 23.8942 18.1672 23.8714 18.0838 23.8385C17.7322 23.6999 17.7101 23.239 17.9808 22.9753L18.2581 22.2273C18.2744 21.9934 17.6156 22.0553 17.39 21.8765C16.8215 21.837 17.1892 21.3403 17.4441 21.097L18.2426 19.8796C18.6628 18.9689 18.5485 17.6164 18.4387 17.0539C18.5407 14.5547 18.93 12.976 19.1119 12.4991Z" fill="white"/>
<circle cx="21" cy="21" r="20" stroke="white" stroke-width="2"/>
<path d="M19 18.5C18.8333 18.6667 18.3 18.9 17.5 18.5" stroke="white" stroke-width="0.5"/>
</svg>
